All Star Big Boobs (2010) [BluRay 1080px264]
 
http://www.imagengratis.org/images/allstarbig.jpg 
http://www.adultdvdemart.com/-/adult_dvd_product_info/filmid=DIPL00291.html 
http://www.jadedvideo.com/Digital_Playground/All_Star_Big_Boobs_DVD.5-56095.html

Studio  Digital Playground 
Release Date  Jan 20, 2010 
Category  Big Boob , Natural Breasts 
Director  Jules Bart
Starring  Jessica Moore , Christina Jolie , Dominno , Jasmine Black , Sensual Jane , Sharon Pink , Choky Ice , Frank Gun , James Brossman , Mugur 

100% All Natural Girls!

'All Star Big Boobs' comes to you courtesy of Digital Playground's newest international director Jules Bart. Dominno delivers a hot shower masturbation scene before opening her pink slit for a close-up. Jessica Moore's huge knockers swing free while she pleasures two men at once. With incredible cum shots, masturbation scenes and an all natural cast of international beauties... his is the film dreams are made of!

=====================================
<<<<<<<<<<<<<<<<<<>>>>>>>>>>>>>>>>>>>>
=====================================

Format : Matroska
File size : 5.38 GiB
Duration : 2h 4mn
Overall bit rate : 6 199 Kbps
Writing application : DivXMKVMux 3.2.0.0252
Writing library : libDivXMediaFormat 3.2.0.0252

Video
Format : AVC
Format/Info : Advanced Video Codec
Format profile : High@L4.0
Format settings, CABAC : Yes
Format settings, ReFrames : 4 frames
Muxing mode : Container profile=Unknown@0.4
Codec ID : V_MPEG4/ISO/AVC
Duration : 2h 4mn
Bit rate : 5 628 Kbps
Width : 1 440 pixels
Height : 1 080 pixels
Display aspect ratio : 16:9
Frame rate : 29.970 fps
Standard : NTSC
Resolution : 8 bits
Colorimetry : 4:2:0
Scan type : Progressive
Bits/(Pixel*Frame) : 0.121
Stream size : 4.87 GiB (91%)
Language : English
Color primaries : BT.709-5, BT.1361, IEC 61966-2-4, SMPTE RP177
Transfer characteristics : BT.709-5, BT.1361
Matrix coefficients : BT.709-5, BT.1361, IEC 61966-2-4 709, SMPTE RP177

Audio
Format : AC-3
Format/Info : Audio Coding 3
Codec ID : A_AC3
Duration : 2h 4mn
Bit rate mode : Constant
Bit rate : 448 Kbps
Channel(s) : 6 channels
Channel positions : Front: L C R, Surround: L R, LFE
Sampling rate : 48.0 KHz
Stream size : 398 MiB (7%)
Language : English